<svg width="16" height="16" viewBox="0 0 16 16" fill="none" xmlns="http://www.w3.org/2000/svg">
<path d="M8.00322 3.95631C5.76732 3.95631 3.96382 5.75991 3.96382 7.99581C3.96382 10.2317 5.76732 12.0352 8.00322 12.0352C10.2391 12.0352 12.0427 10.2317 12.0427 7.99581C12.0427 5.75991 10.2391 3.95631 8.00322 3.95631ZM8.00322 10.622C6.55832 10.622 5.37702 9.44421 5.37702 7.99581C5.37702 6.54741 6.55482 5.36961 8.00322 5.36961C9.45162 5.36961 10.6294 6.54741 10.6294 7.99581C10.6294 9.44421 9.44812 10.622 8.00322 10.622ZM13.1501 3.79111C13.1501 4.31491 12.7282 4.73331 12.2079 4.73331C11.6841 4.73331 11.2657 4.31141 11.2657 3.79111C11.2657 3.27081 11.6876 2.84891 12.2079 2.84891C12.7282 2.84891 13.1501 3.27081 13.1501 3.79111ZM15.8255 4.74741C15.7657 3.48521 15.4774 2.36731 14.5528 1.44621C13.6317 0.525114 12.5138 0.236814 11.2516 0.173514C9.95092 0.0997141 6.05202 0.0997141 4.75132 0.173514C3.49272 0.233314 2.37472 0.521614 1.45012 1.44271C0.52552 2.36381 0.24072 3.48171 0.17742 4.74381C0.10362 6.04461 0.10362 9.94341 0.17742 11.2442C0.23722 12.5063 0.52552 13.6243 1.45012 14.5454C2.37472 15.4665 3.48912 15.7548 4.75132 15.8181C6.05202 15.8919 9.95092 15.8919 11.2516 15.8181C12.5138 15.7583 13.6317 15.47 14.5528 14.5454C15.4739 13.6243 15.7622 12.5063 15.8255 11.2442C15.8993 9.94341 15.8993 6.04811 15.8255 4.74741ZM14.145 12.6399C13.8708 13.329 13.3399 13.8599 12.6474 14.1376C11.6102 14.5489 9.14932 14.454 8.00322 14.454C6.85712 14.454 4.39272 14.5454 3.35912 14.1376C2.67002 13.8634 2.13912 13.3325 1.86142 12.6399C1.45012 11.6028 1.54502 9.14191 1.54502 7.99581C1.54502 6.84971 1.45362 4.38521 1.86142 3.35161C2.13562 2.66261 2.66652 2.13171 3.35912 1.85401C4.39622 1.44271 6.85712 1.53761 8.00322 1.53761C9.14932 1.53761 11.6138 1.44621 12.6474 1.85401C13.3364 2.12821 13.8673 2.65911 14.145 3.35161C14.5563 4.38881 14.4614 6.84971 14.4614 7.99581C14.4614 9.14191 14.5563 11.6063 14.145 12.6399Z" fill="black"/>
</svg>
