<svg width="16" height="16" viewBox="0 0 16 16" fill="none" xmlns="http://www.w3.org/2000/svg">
<path d="M3.6505 15.7506H0.3852V5.23539H3.6505V15.7506ZM2.0161 3.80099C0.9719 3.80099 0.125 2.93619 0.125 1.89199C0.125 1.39049 0.3242 0.909496 0.6789 0.554856C1.0335 0.200206 1.5145 0.000976562 2.0161 0.000976562C2.5176 0.000976562 2.9986 0.200206 3.3532 0.554856C3.7079 0.909496 3.9071 1.39049 3.9071 1.89199C3.9071 2.93619 3.0598 3.80099 2.0161 3.80099ZM15.8715 15.7506H12.6132V10.6319C12.6132 9.41199 12.5886 7.84749 10.9155 7.84749C9.2178 7.84749 8.9577 9.17289 8.9577 10.544V15.7506H5.6959V5.23539H8.8276V6.66979H8.8733C9.3092 5.84359 10.3741 4.97169 11.9628 4.97169C15.2675 4.97169 15.875 7.14789 15.875 9.97449V15.7506H15.8715Z" fill="black"/>
</svg>
